PathFileType	4	(X/Y/Z)	pose_F01_0-94.trc
DataRate	CameraRate	NumFrames	NumMarkers	Units	OrigDataRate	OrigDataStartFrame	OrigNumFrames
30	30	11	21	m	30	75	94
Frame#	Time	CHip			RHip			RKnee			RAnkle			RBigToe			RSmallToe			RHeel			LHip			LKnee			LAnkle			LBigToe			LSmallToe			LHeel			Neck			Nose			RShoulder			RElbow			RWrist			LShoulder			LElbow			LWrist			
		X1	Y1	Z1	X2	Y2	Z2	X3	Y3	Z3	X4	Y4	Z4	X5	Y5	Z5	X6	Y6	Z6	X7	Y7	Z7	X8	Y8	Z8	X9	Y9	Z9	X10	Y10	Z10	X11	Y11	Z11	X12	Y12	Z12	X13	Y13	Z13	X14	Y14	Z14	X15	Y15	Z15	X16	Y16	Z16	X17	Y17	Z17	X18	Y18	Z18	X19	Y19	Z19	X20	Y20	Z20	X21	Y21	Z21	
75	2.5	-0.28247093166985515	1.881924946495031	-0.6447143359976019	-0.29745970110058256	1.878400251153558	-0.5830573255521954																-0.2643768641961726	1.8858385494853307	-0.708216230170717																-0.28216055160398856	2.039021601878091	-0.6570125421550023	-0.26238894637693405	2.101707125309611	-0.6351778749602787	-0.30327935968069275	2.036024620765056	-0.5733297388506495	-1.5480086778122695	1.8618150101020632	0.7556207246680566	-0.31302069007586236	1.8854665430395865	-0.4858945034260298	-0.2529482172071303	2.0446145099740796	-0.7497217492429773	-0.24303022946242261	1.9646282270517912	-0.779555181729026	-0.23191001633288427	1.8841787162604566	-0.7768258097590534
76	2.533333333333333	-0.28052123944725815	1.8846172271152348	-0.6471581815007404	-0.29535042780891463	1.8812858322836599	-0.5854527121989423																-0.2636157066739214	1.8884264452134973	-0.7055334217084244																-0.2799106445410922	2.0427860355914316	-0.6592648500953283	-0.2623398610756203	2.106757813765955	-0.6359074346997996	-0.3030008841856101	2.039909626946387	-0.5736072305680313	-1.5559119440964346	1.8643592018261292	0.7701597065350092	-0.31386307852349543	1.8879362512642828	-0.48095710679487963	-0.2548980389483911	2.0498907135302162	-0.7480634346483381	-0.2418969273433912	1.9714450464500697	-0.7771571454816885	-1.1350921386809156	1.7967790047583367	0.10275714654727006
77	2.566666666666667	-0.28065658270201577	1.8865823594801876	-0.6473805402448324	-0.29555849406637047	1.8844854649388834	-0.5858357834210369																-0.2646161243611563	1.8901666298689948	-0.708670449203855																-0.27890618528732203	2.043736307874991	-0.6562569945795637	-0.26226010543362893	2.1082355389440455	-0.6364039199117728	-0.3020835057769439	2.0395456438132986	-0.5705167287427759	-1.555869853780261	1.86442125935675	0.7700542232452691	-0.3137388100166671	1.8895442798664628	-0.48106877507121293	-0.25184893113907314	2.052137766904668	-0.7476422510315225	-0.24423112708815406	1.972621433091582	-0.775207586187533	-1.1428065269074594	1.8000062415281612	0.11376504879282101
78	2.6	-0.2783677907463371	1.8879694840592653	-0.6496242216361675	-0.29547758887823394	1.884165175042489	-0.5858656400363066																-0.26439779427161864	1.8912587650076589	-0.7088357254278432																-0.2789076282353062	2.0452887738614094	-0.6566709228873714	-0.26217228689796385	2.10936934643403	-0.6363260368420453	-0.30211663108053827	2.0409006171284623	-0.5709012391675964	-1.5556359140776888	1.8646525568742154	0.7696026572098612	-0.31299114277842877	1.8859269251926136	-0.4860448084022212	-0.25275122398898503	2.0511425129379033	-0.7506209542426996	-0.24440282717640752	1.9690614061955645	-0.7749246865873479	-0.23386491435221726	1.8897169540143277	-0.7750912671135631
79	2.6333333333333333	-0.27838465087227676	1.8893674482888594	-0.6499251537620924	-0.29338363207935925	1.8868293363598183	-0.5882546404974687																-0.262354028760192	1.8919509025882244	-0.7112529968721583																-0.2787870602593477	2.048020245614767	-0.6570148370430282	-0.26223487840649057	2.110709479806713	-0.6368252953463012	-0.30197674211076436	2.043586282208347	-0.5713240293242341	-1.5544477265185919	1.8645373964792018	0.7684846850534163	-0.3117087456103643	1.8883797978971346	-0.49163985850891845	-0.2518755359262242	2.0535060309333115	-0.748060486129766	-0.2466029672933708	1.9732735912800563	-0.7730383549013243	-1.1546974948320405	1.7976180833916864	0.12641772249793573
80	2.6666666666666665	-0.27710883913753215	1.8854548403145375	-0.6463058225242514	-0.29220429839191553	1.8816434778886553	-0.5845251908591115																-0.26413244607815173	1.8886649907594788	-0.7085816590894747																-0.28095967701158664	2.046717496949064	-0.6550607902400978	-0.26223918619868203	2.110676472249093	-0.6368905072348966	-0.3040815539821714	2.042236679991161	-0.5693133389612405	-1.5417634047286486	1.864109278591291	0.7433374894968883	-0.3128866209220563	1.8808446953509275	-0.502307254478488	-0.2548679040065094	2.0534683593767	-0.7488630343013353	-0.2444416573971179	1.9687615853371025	-0.7749122369457369	-1.1479343153778891	1.7900885106719349	0.11364069448506058
81	2.7	-0.2791551596670831	1.8905992087039825	-0.6446905073187825	-0.295134649864522	1.887255749684425	-0.5859679473934356																-0.2641788025162047	1.8959864997088045	-0.7091205045720844																-0.2808593330360344	2.0481583418680764	-0.6549084920476678	-0.2642898954533463	2.110611147011615	-0.634810491938881	-0.3020077558502944	2.043711625610434	-0.5712871378520252	-1.5414426538887218	1.8620511793795116	0.7424770628071825	-0.3132285257868127	1.8836070112653513	-0.5114868291380977	-0.25413542529064986	2.0546100990567324	-0.746229541210709	-0.24877916851004891	1.9718462364739	-0.7707302597403344	-1.1472234960875531	1.7901374352766128	0.11270851018987196
82	2.7333333333333334	-0.2772486436165275	1.885356758015845	-0.646215353427023	-0.29515544144484246	1.880686820918923	-0.5851842545855854																-0.26431070327671624	1.8903910973618392	-0.7086615798428129																-0.2809026627442328	2.0479650162220473	-0.6548459336535846	-0.2652047848257663	2.110738085201795	-0.6375713508371837	-0.3039407802204999	2.043651228992258	-0.5692173855733227	-1.5409574674334074	1.8622128486831326	0.7415031712785071	-0.3111616439255086	1.8794319335978373	-0.5218700202859287	-0.2562634374388669	2.0533309353538653	-0.7436733500883675	-0.24964451556107878	1.967168252803501	-0.7731784675761829	-0.23892761565211232	1.8845850784723333	-0.7817036499835501
83	2.7666666666666666	-0.27791405399962155	1.886215387986658	-0.6455733644730924	-0.2942345905342507	1.8833970938728901	-0.5824149854708593																-0.26632423871212435	1.891642196264535	-0.7066131578993035																-0.28093404460043564	2.0481172514633195	-0.6548069314011721	-0.26520458784128575	2.1095351219918177	-0.6370365883577145	-0.30397790196029956	2.0436770144355143	-0.5692352800559374	-1.5349736739763167	1.8617802517442161	0.7296289012887881	-0.31424260590304154	1.8814559407256308	-0.5230532428353899	-0.2563168310035675	2.0534536104441248	-0.7435913757459552	-0.2512402139311936	1.9661920644886839	-0.768023466371775	-0.24125596847572414	1.8859382409318723	-0.7795484402386211
84	2.8	-0.27857946438271564	1.887074017957471	-0.6449313755191618	-0.29419477935014193	1.8833504946100192	-0.58236841242258																-0.26542274515355363	1.8914402996881527	-0.7036236103151421																-0.2809981310555198	2.045527632928038	-0.6544952185026125	-0.26521406867517927	2.1093646963071344	-0.6370913423316026	-0.30394312485663844	2.042346987251588	-0.5688006087671836	-1.5412173096736106	1.8620066652747789	0.7419585377858608	-0.31239354920484297	1.880510520724912	-0.5163864017875721	-0.2562897655005474	2.0532805158005694	-0.7435854363252775	-0.25128672431810073	1.9670798333145199	-0.7681538802792257	-1.1443880586149868	1.7938911193431555	0.10449143653106178
85	2.8333333333333335	-0.27924487476580967	1.887932647928284	-0.6442893865652313	-0.29416724301001584	1.8835484311110642	-0.582434721511661																-0.2634283178530573	1.8928906908219185	-0.7058575264668148																-0.28101899083227033	2.0455495755076507	-0.6544773567478424	-0.26435059752833573	2.110558747934329	-0.6347166377413934	-0.30406296612740963	2.041074293650958	-0.5688449425213653	-1.5411333222391144	1.8622988845455029	0.7417692083756918	-0.3134276614192564	1.880983854627464	-0.5110205235527265	-0.25627292143033586	2.0520532463992796	-0.7432381984261196	-0.25117047295275835	1.968741189526543	-0.7680768334394229	-1.1422475480025207	1.7889415590215652	0.1034714066962762
